/* XPM */
static char *result[] = {
/* columns rows colors chars-per-pixel */
"50 50 79 1 ",
"  c #ACABBD",
". c #B3ACB6",
"X c #B9B0B5",
"o c #C1B6BB",
"O c #C0B8BE",
"+ c #ADAEC3",
"@ c #B0AFC1",
"# c #AEB2C5",
"$ c #B6B3C4",
"% c #BAB5C5",
"& c #BEBAC7",
"* c #B4B5CA",
"= c #B9B6CA",
"- c #B5B9CE",
"; c #BCBBCD",
": c #B6B7D0",
"> c #B6BAD2",
", c #BCBDD3",
"< c #BBBFDA",
"1 c #C5BBC2",
"2 c #C3BDCC",
"3 c #C1BED3",
"4 c #BFC0D6",
"5 c #BDC2DB",
"6 c #BEC9E4",
"7 c #CAC0C7",
"8 c #C5C2CE",
"9 c #CAC2CA",
"0 c #C3C2D5",
"q c #CBC5D4",
"w c #CBC8D6",
"e c #C3C4DB",
"r c #C9C6DB",
"t c #C6C9DD",
"y c #CCCADD",
"u c #D2C9D3",
"i c #D2CDDD",
"p c #D5D0DF",
"a c #DBD5DF",
"s c #C4C7E1",
"d c #C5C9E3",
"f c #CCCCE3",
"g c #C5CDE9",
"h c #CBCEE9",
"j c #D1CEE3",
"k c #D1CFE8",
"l c #CDD0E6",
"z c #CDD1EB",
"x c #D4D2E5",
"c c #D9D4E6",
"v c #DED9E7",
"b c #D4D4EB",
"n c #DAD6EA",
"m c #D6D9EE",
"M c #DCD9ED",
"N c #CBD3F0",
"B c #D6D7F0",
"V c #D6DBF4",
"C c #DCDCF2",
"Z c #DADFF8",
"A c #E2DAE5",
"S c #E2DCED",
"D c #E2DEF2",
"F c #DEE1F6",
"G c #DDE2F9",
"H c #E5E0EE",
"J c #E8E1ED",
"K c #E4E2F4",
"L c #EAE5F5",
"P c #EFE9F7",
"I c #E4E4F9",
"U c #EAE6F9",
"Y c #E6E9FC",
"T c #EBEAFC",
"R c #F1E9F5",
"E c #F2EDFB",
"W c #EFF0FE",
"Q c #F4F1FE",
"! c #F8F2FF",
/* pixels */
"mn3fkkcfyrccikjyyiiqDLSi&;rckdkfiixcy0qlzt5ftllgeV",
"IxjcccccffkiccrrjMicMMAq3rkcxsdriqvLv24ld0#5ghdzgZ",
"Ky3jnnAcLnjxSDMjqr,,:kjfqrbcAkjj3,ic0yydNbxflibzlc",
"L0jyjMMMEUSDLRLSCCkbBDnb2rjcSSScr<,06bUCdfmHMvpbCE",
"De3fkcCTR!SDMPELKDmMDCSv3fk3fMnnyeesefCUKMIIDCpfKE",
"EDkBDUT!!KLRLULLDmfjMnMSy0kfsfkjq2r;yUTDIUIKDSMxxM",
"UcDDcDUTKLEEECbKbzLKCmxeshkcksd30yxqMUYKMYUUKPLcLD",
",:3cccnCKEREKVZUYBTQTy>skbBnnfgke;ycZULQQEQvMPbcRc",
"fs,kMySLLKAHKIFTWYFWUyyfkDDDDfshf;%fKUEQTLKcczmmmx",
"khbkMxaJSASmYTITWYW!TCbpcnbBkh<dh3,bFYTWYCzZGzLQUm",
"blhbcyqvau79xYYUYIYYFbfnnSMnDc,<,e6KLIKQLZZUQIUImm",
"xzxmMyxMx&&9qMnFYYYGNFl4bIIDDBnjjKZUQYMIGUFUQYKylb",
"ezbbCbgbf5BZCIyyFYGVYGGbrqehhfDDAnYGTTnbYTIKb5xxde",
"0gghmcyg50IKbKxrYFVFYUIbr=3mkkccpinTQyykBBHUmzCKxe",
"ejhsgf0dzBmlfkjrKbmGZBmzzxxxAcaciqfYF0jcx-lFKnxDnr",
"sdbbfef,*>:edkefKnkbxmbcgbncnjqqyxFPjjcMyeelbdtjxl",
"zhkxff3=-5*,cUnSUUDScMfhbkjcrfyysZYm3fxi0&jlf-*ddg",
"dghfs,@*e5ebcUnP!EEED$=sdrbnr0rx3nk>3jjr;-5ggy0gfe",
"ssbbe*==mvrSDhcDLKDLk3,*ekfky0fhsfcd3sj36ggNzzbme>",
"sdde*,%uLMiDEDDSRLSDCnknDMndfejnnkshfrfsggzttyfezd",
"Vz6+ =xSvbDEUckcD!PUKDnCDDSbe0xKIcsdmPvyffjqxie--V",
"de=<sdMcUTE!c3ccjxKKneybffAx:+eCbh36hBUMfgfmDy4* #",
"5#:xUDkcSUTLrjccckSDdemns5xj@=2nMSe<KPKYmdfnSvw0d-",
"55bdDScccnBkrcnccqSUDBDDc0jc;$cIDDbkYTKMLCSSHL0pxl",
"eekbbbDciADk3jxSx,ymBjyMnf<$;dhfzhnDIKEQERSUDnjcLi",
"jgmDDKDyrxAyyjfjt0flx<drfkh<cLjfbfyCUP!TTLDUUKKMSw",
"frMnBkhee0qi3q2&8$fgd**ghehhxRSjAMxFYTUKDnL!EEEJw3",
":snkjSDr><3fj21,556gzbjg$.rgbDMjccyjMCKLhBDUDDKx05",
"MCccMDDBcikfCSy5gzNgzzy0$icxMDbxkriyDKLELSJRRLDZnb",
"DCbcnhhbDSc3fjxf5gx4txxe4xbfeqinjsjCZTEEUDSDEPUDnD",
"TULDbmkjAxjrf55mdtcd<yng5eSceevy3BnUEEQULERUUUKMcU",
"EEELj3rejxiqMnBLvcUIznKDetjfe0yqqjbADIDDDKRRPSnrc!",
"DSBnle0ezelfxHfby0MKClMSjeee5exKDScxhzBzmKUKMUnbMM",
"DCzUPIzbfgbvbltl5edmftfjxfsermIUKDcVVDTZKQTCMEEDmz",
"TTZTYUmzCFcnl5$w&tlg4+5ddhzsedKLKSnZKIQWCDCIETECFZ",
"TQYIWLFUUPCbdlt;-4hggqfgsgghldzUKKYTIYWYmSTEEEDDIK",
"ETYTEYKUTYLmhzgt6NNzzbzd 3gdgzlMaDFYYYYIncDDDDDTTI",
"YTIYYFVVIImnwt4tdlt0zdzzxhzcKVzCvLSCMFYFSccnZUUIYT",
"YGWYVZGGVmCkjnVCIFllNgdzBbxKQTCFvMSw9wVYDrcSLLSSSv",
"qFYZVYYGMnUcfZFIQTFYIfwFUKbMPLxtzfDct;xFBjiuAAAAu2",
"XFCFFFYYvMCibTIITTYTEDKUUUDnc3sfBnnZkdhfbDFcSa7X1o",
"cciCYYWIHKcybMBfhBBTYUFLWYDnkfjjSDDDkehhfDTQFtee=q",
"cciATQHpHxxmnDDjshdbVzVzml3kffkxMBkkk3edecQMfrgzsj",
"ct40vKi8ywxMMCBf3hhh5tmz543cxffjDDDDSe<,,mKyj--gfy",
"mbt5bMMxjMcDnknk,<s3dnDSfefccccrjDDZBMvcpUDccfDmsf",
"KHyecMCMfyjDDUDDf03fDjbSxeecAcnc35ghfcDSxMHxrrULCB",
"xMct<bHIj0fCBbBbDSSbheffjhseMMSnk33kjxcaie0;,,emnt",
"dtlzdtUKcxccfhhfnScy,+,gdgbsfCnnks3jMixiu;ymbe<ff<",
"5dgfbgDPcycxyxAxxxii0ysbmfhhsdhjr$3jcrqicBBKSress@",
"zbyehgfZiineycccici80BBnjrrhffh333ck0kqbMnennje5hb"
};
