/* XPM */
static char *eca6122a48ec4761cad9937c7f24a9ecZIgcihNjXXQSrYYD[] = {
/* columns rows colors chars-per-pixel */
"50 50 158 2 ",
"   c #0C0C0F",
".  c #131316",
"X  c #15151A",
"o  c #1A1A1D",
"O  c #1D1D21",
"+  c #222224",
"@  c #262629",
"#  c #29292B",
"$  c #2B2B36",
"%  c #2E2E3A",
"&  c #33333D",
"*  c #363642",
"=  c #3A3A45",
"-  c #3D3D4A",
";  c #43434C",
":  c #48484F",
">  c #444454",
",  c #4B4B53",
"<  c #464659",
"1  c #4B4B5C",
"2  c #515157",
"3  c #52525C",
"4  c #59595D",
"5  c #4E4E61",
"6  c #545464",
"7  c #595966",
"8  c #565668",
"9  c #595969",
"0  c #595968",
"q  c #5A5A69",
"w  c #5B5B69",
"e  c #58586A",
"r  c #59596A",
"t  c #59596B",
"y  c #5A5A6A",
"u  c #5B5B6A",
"i  c #5A5A6B",
"p  c #5B5B6B",
"a  c #5C5C69",
"s  c #5D5D69",
"d  c #5C5C6A",
"f  c #5D5D6A",
"g  c #5D5D6B",
"h  c #5B5B6C",
"j  c #5B5B6D",
"k  c #5A5A6E",
"l  c #5B5B6E",
"z  c #5C5C6C",
"x  c #5D5D6C",
"c  c #5D5D6D",
"v  c #5E5E6C",
"b  c #5E5E6D",
"n  c #5F5F6D",
"m  c #5C5C6F",
"M  c #5F5F6E",
"N  c #5E5E6F",
"B  c #5C5C6B",
"V  c #5F5F71",
"C  c #626265",
"Z  c #60606C",
"A  c #60606D",
"S  c #60606E",
"D  c #61616E",
"F  c #61616F",
"G  c #63636E",
"H  c #62626F",
"J  c #63636F",
"K  c #62626E",
"L  c #606070",
"P  c #606071",
"I  c #626270",
"U  c #636370",
"Y  c #626271",
"T  c #636371",
"R  c #606072",
"E  c #636372",
"W  c #646471",
"Q  c #656571",
"!  c #646472",
"~  c #656572",
"^  c #646473",
"/  c #656573",
"(  c #666673",
")  c #676773",
"_  c #626274",
"`  c #646474",
"'  c #666674",
"]  c #676774",
"[  c #676775",
"{  c #676776",
"}  c #676777",
"|  c #646472",
" . c #686873",
".. c #686874",
"X. c #696974",
"o. c #696975",
"O. c #696976",
"+. c #696977",
"@. c #6A6A77",
"#. c #6B6B77",
"$. c #6C6C76",
"%. c #6C6C77",
"&. c #6A6A75",
"*. c #6B6B78",
"=. c #6C6C78",
"-. c #6D6D78",
";. c #6C6C79",
":. c #6E6E79",
">. c #6D6D7B",
",. c #6E6E7A",
"<. c #6F6F7A",
"1. c #6F6F7B",
"2. c #6F6F7C",
"3. c #6D6D79",
"4. c #707079",
"5. c #70707B",
"6. c #71717B",
"7. c #71717C",
"8. c #70707D",
"9. c #72727C",
"0. c #72727D",
"q. c #73737D",
"w. c #73737F",
"e. c #74747D",
"r. c #74747E",
"t. c #74747F",
"y. c #75757F",
"u. c #77777F",
"i. c #73737D",
"p. c #747480",
"a. c #757580",
"s. c #767680",
"d. c #767681",
"f. c #777781",
"g. c #767681",
"h. c #787881",
"j. c #787882",
"k. c #797983",
"l. c #797984",
"z. c #7A7A84",
"x. c #7C7C86",
"c. c #7B7B84",
"v. c #7F7F89",
"b. c #818187",
"n. c #808089",
"m. c #818189",
"M. c #87878F",
"N. c #83838B",
"B. c #89898F",
"V. c #8B8B93",
"C. c #8D8D95",
"Z. c #8C8C92",
"A. c #919196",
"S. c #94949A",
"D. c #99999D",
"F. c #9D9DA1",
"G. c #A1A1A4",
"H. c #A6A6A8",
/* pixels */
"& ; = > - = ; < > 2 C s 4 s s : & = > ; - - * * O @ - * * - * * - < ; = = - - - - ; > ; ; 1 , ; - O ",
"> h 8 6 i i i v d A z.M.Z.Z.%.< , 3 8 v 6 V 5 5 O * 5 < k k 5 5 8 V i 6 h 8 h h h V v i 2.W %.W 6 O ",
"* 8 1 > 8 8 7 7 7 8 v y.y.9.< - > 1 8 6 1 1 < 1   $ 5 5 5 5 < < i 8 1 6 8 6 6 1 i 7 8 O.9.d A A 1 O ",
"= 8 5 5 8 O.A A  .R v W O.7 ; 6 1 < 1 1 < > < < X * 5 < 8 5 < 5 A 8 1 1 1 1 > 1 7 d y.x.%.W A R 1 O ",
"> 8 3 6 A O.O.A 7 R i 8 7 > 1 3 A d <.` i > > > X $ 5 5 5 < < 5 7 6 < , 8 7 > 8 v W W 7 7 d *.W 5 O ",
"= 5 1 1 A %.c.O.<.O.6 8 1 1 1 < 3 O.n.z.s.y.` 1 X $ 5 5 5 < < 8 1 6 6 J <.y.d v v R 3 d d A W 7 1 o ",
"* 8 > 1 v <.c.9.y.9.8 6 < 1 < , ` y.c.9.9.s.s.1   * V k k 5 k k 8 6 A y.n.c.G s R A 8  .7 W R v 1 X ",
"* 1 > 8 J 9.y.9.c.c.9.<.s.3 1 O.<.W <.<.%.<.%.7 X - _ 8 5 8 8 k i 6 9.9.y.%. . .A d Z 7 d O.J d 1 O ",
"% 1 8 i W y.y.c.x.9.9.s.c.A d %.W <.O. .9.c.x.%.O - j.O.v 8 8 1 5 6 W s.y.n.b. .J R <.y.%.W O.d 1 o ",
"* 8 h 7 J 9.<. .c.c.9.%.%.%.s J 9. .%.9. .B.B.e.O 1 s.9.9.R 8 > > 6 7 <.b.Z.c.c.A.c.9.e.O.9.W d 8 o ",
"- R ` h 9.x.y.c.b.%.9.9.d  .O.z.y.9.u.c.c.S.N.y.X ; M.z.s.W R < 8 i 6 1 9.u.c. .%.B.B.x.<.9.W R h O ",
"$ * * = ; : , , : = ; = = , ; , , ; 2 , 2 4 2 , X & 3 3 ; ; = % * & * $ = : ; = & : 2 , , , = - - X ",
". . X X o o o O o o o o X o o o o o o O + + o + o o O o o o X . . X X . X . X . o o + + o o o o X . ",
"6 R R d %.y.9.c.u.9.9.> o 3 d W W %.4.u.b.c.Z 3 1 8 A 9.9.A d 6 1 1 v 8 & O v 6 3 A c.y.9.s.O.R i 1 ",
"` R i 7  .s.s.s.y.%.7 & X 6 8 d J e.y.c.4. .6 > 7 7 8  .9.A 8 > > 8 d 6 $ o 3 < 6 i  .s.<.A W A d V ",
"i 8 7 6 9.s.c.y.y.J v & X 7 7 d s J b.c.9. .Z d 8 6 6 *.s.A 1 > 1 8 7 1 & X 7 6 1 3 7 d 3 7 7 1 3 R ",
"d A A R y.s.y.y.<.R v & X v 8 d 3 A n. .`  .<.W 7 7 %.z.9.d 3 < 6 8 6 7 & X 6 1 > > 7 A  .s 3 3 i i ",
"v W R ` 9.c.s.9. .<.v & o v i 8 8 W O.7 < > 8 7 6 <.x.e.<.d 7 8 J J 6 6 % X 3 1 v 9.v.B.c.b.y.O.8 6 ",
"O.9.9.*.y.z.x.9.O.W d = X R 7 < 1 J d 1 > > - > J v.9.J <.9.c.M.N.J 3 1 $ . 1 1 Z c.C.S.S.D.B.b.y.d ",
"v.z.9.9.s.s.9.9.y.W i * X h 7 1 1 d Z 7 1 > < < O.<. .9.%.c.n.B.B.u.c.u.2 + y.9.9.N.D.D.D.S.A.B.b.y.",
"Z.y.%. .9.<.9.c.y.A i & X 8 8 d A 7 A c.8 1 3 <.9.9.y.y.J u.x.N.D.B.Z.G.C @ S.S.S.H.G.D.D.Z.B.A.B.M.",
"c.n.c.x.u.9.y.y.x.<.A = . 6 8 d A W J 7 1 s A 9.9.c.u.y.y.x.b.S.A.B.B.G.C + S.D.D.D.B.N.N.N.A.A.B.M.",
"N.b.x.x.e.4.9.y.c.O.*.= X 8 8 <.O.A 6 W J 1 3 W <.z.x.y.9.u.c.c.Z u.A.D.C @ S.S.S.A.4.J 4.b.A.B.B.N.",
"B.u.u.u.u.%. .y. .d i * X 8 8 O.A d %.d - 1 1 7 O.z.9.6 A Z 3 < 2 J u.4.: + B.A.A.e.G 7 4.N.b.e.B.N.",
"+ + o + + O o + O o o .   X X o o X O . . o X o @ @ o . o X X X o o o X .   + + O + + o + + O + + # ",
"& 4 2 2 2 : : , ; , = & = ; - = ; * % & $ = - - + + = ; ; ; % & > ; 2 , ; 2 = ; : 2 ; & = ; , , 2 o ",
"; c.S.S.B.c.c.c.v.*.d 8 V *.V ` >.V 6 8 6 6 8 e o * *.R y.y.s $.<.p.z.s.c.n.O.<.%.9.7 1 1 A s.N.9.O ",
"= s W c.9.9. .A 9.W 7 8 8 8 8 R i 1 1 5 5 < 1 1 X - v i Z 4.Z 7 i <.` A A 7 A O.v 3 7 s > 6 n.y.3 o ",
"; i 7 d %.u.9.O.y. .6 3 8 8 8 ` 5 < 1 6 6 < 5 5 X = W d Z y.9.%.A <.O.O.R i W s.R d *.O.6 6 v.<.1 O ",
"= 8 7 A y.B.N.y. .Z 8 1 8 i A R 6 1 5 5 < 1 5 5 o = W 7 %.b.x.B. . .A %.J *.s.9.W <.O.i 3 1 h d 6 O ",
"* 6 d y.N.b.B.b.N.c.7 6 6 d h 6 1 5 5 5 < 5 6 5 . = A i  .c.x.N.J A %.J J n.9.%.s.9.W < 6 i 6 6 3 O ",
"* 5 d y.B.b.c.N.N.b.e.A 6 7 8 1 5 5 < > 5 6 5 5 o & 6 1 3  .c.Z.7 J <.W %.b.O.9.<.%.i 7 i R 8 8 5 X ",
"* 6 ` p.b.c.b.B.N.B.N.%.Z 7 6 1 6 6 6 1 1 5 1 5 O * 5 6 v W 9.u.1 $.4.A W 7 %.9.O.9.<.R d v v 8 5 X ",
"- V d 8 c.x.x.B.A.B.B.$.s s 7 < 5 d ` R 6 5 5 6 X * h 8 A A 6 > 7  .J 9.W s A O.W %.7 8 v 6 6 V 6 X ",
"; 8 1 < 9.n.c.N.A.b.B.u.<.9.$.3 d ` W R 8 1 5 1 . % 8 < < 3 > 1 7 A e.b. .7 Z  .O.J 7 7 8 6 8 A 6 O ",
"> v 7 7 n.S.N.Z.A.S.S.S.Z.Z.B.N.n.O.O.*.i 6 5 8 X * 8 8 8 R R W *.s.Z.n. . .Z $.z.y.2.R R V v i i O ",
"$ = = ; , 2 2 2 4 C 4 4 4 4 2 4 2 ; ; = * * * * . $ - * = ; ; , , 2 2 2 ; ; & : ; ; - * = = & * = o ",
". X X X X o + + + + + + X + o o O + O o X X X . X . . X O X X o o + + o o . + + + o o X . . . X o X ",
"1 8 i 6 7 d y.n.B.B.S.G @ B.y.c.z.n.s.<.v h 5 < < 5 5 h v i ` <.c.n. .b.C + B.D.c.J v v v 8 8 R 8 > ",
"1 5 8 8 3 6 i J u.B.B.: + c.b.c.s.n.s.` V i < < < < 5 h 6 A W s.c. .O.M.4 O D.D.c.s v v 7 6 v R 1 > ",
"1 > 1 5 1 1 > 6 $.b.$.; o b.b.c.9.z.O.` v 6 5 < 5 < 6 6 i 8 *.*.s A  .N.C + D.D.B.s 8 d 8 7 *.i > 1 ",
"< 3 8 6 6 i 6 8 Z C  ., O u.N.u.y.M.y.*.v 1 < 1 5 < 1 6 6 8 V 8 i J C B.4 + S.A.B.e.7 7 3 v W 6 i 1 ",
"W R i 6 A d i A d %.c.; + N.u.4.z.v.v.*.V 1 1 5 < < 1 6 1 R 5 5 6 A $.A.C + B.B.A.c.6 d 8 *.A 7 W A ",
"R 7 i v 2.v 1 A A 6 d ; o c.u.u.z.s.9.9.i < < 5 5 < 1 8 i i 5 5 3 O.b.D.C + Z.A.A.b.3 d i *.W A ` W ",
"W 7 i 8 i 7 6 v 7 1 d ; o u.c.n.z.M.x.A 8 5 < < > > 5 5 5 5 8 5 6 i 7 9.: + N.N.S.N.7 3 6 W A O.R W ",
"6 7 3 1 1 8 i i 8 8 p.: o u.c.x.9.z.7 3 8 5 5 5 < < 5 5 5 k 5 < 6 1 1 5 & o  .9.Z.B.9.6 d  .A W d i ",
"> < 1 < 8 8 1 6 A d p.> O z.y.c.<.R 8 5 8 5 8 5 5 5 5 5 5 5 5 5 6 6 8 8 & . A  . .y.x.y.9.W <.O.7 > ",
"5 6 6 6 v 6 6 h O.<.s.2 + N.y.s.*.2.} V 8 k 5 5 < 5 - 5 5 - 5 < 6 7 8 8 = X 6 6 Z W 9.9.O.9.<.v 1 1 ",
"8 1 6 i 6 5 6 1 R y.y.3 + x.e.9.J 7 i 8 1 5 1 > < > < - 5 5 5 - 1 v 6 8 * . 6 1 h R O. .J W i 6 1 i ",
"O o O O O O O O + @ # @ o # # # + o O + O O O X X O O O O O O X O @ O O X . O O O O @ @ + + + + O O "
};
