/* XPM */
static char *_97947e7959d4335ea05c297ca5d29984awTmi7oWy07ibdH[] = {
/* columns rows colors chars-per-pixel */
"50 50 175 2 ",
"   c #010101",
".  c #070708",
"X  c #080708",
"o  c #0B0B0B",
"O  c #0F0F10",
"+  c #131314",
"@  c #171718",
"#  c #181719",
"$  c #1B1B1C",
"%  c #1E1E20",
"&  c #201F21",
"*  c #222224",
"=  c #262629",
"-  c #2A2A2D",
";  c #2E2E31",
":  c #302F31",
">  c #2F3034",
",  c #323235",
"<  c #353539",
"1  c #3A393D",
"2  c #3D3D42",
"3  c #3F4045",
"4  c #414146",
"5  c #44444A",
"6  c #48474C",
"7  c #4A494E",
"8  c #4C4C53",
"9  c #504F54",
"0  c #4F5056",
"q  c #4F5058",
"w  c #525156",
"e  c #54545B",
"r  c #59575E",
"t  c #59595E",
"y  c #565962",
"u  c #5B5C63",
"i  c #5E5F69",
"p  c #5C6069",
"a  c #616066",
"s  c #64636B",
"d  c #68666D",
"f  c #6A686F",
"g  c #676670",
"h  c #686770",
"j  c #676871",
"k  c #6B6B73",
"l  c #6E6E79",
"z  c #706F76",
"x  c #706F7B",
"c  c #6F707A",
"v  c #74747C",
"b  c #78777E",
"n  c #7B787F",
"m  c #757681",
"M  c #7A7781",
"N  c #767986",
"B  c #7B7B84",
"V  c #7F7F89",
"C  c #807E86",
"Z  c #807F88",
"A  c #7F808C",
"S  c #83828C",
"D  c #88858C",
"F  c #8E8A8F",
"G  c #868691",
"H  c #888794",
"J  c #878893",
"K  c #8B8A95",
"L  c #8D8E9B",
"P  c #918D97",
"I  c #908F9B",
"U  c #8E909E",
"Y  c #93929D",
"T  c #98969E",
"R  c #8F92A1",
"E  c #9594A2",
"W  c #9996A2",
"Q  c #9698A6",
"!  c #9A9AA6",
"~  c #9699A9",
"^  c #9B9BAA",
"/  c #9D9EB1",
"(  c #A19DA7",
")  c #9EA0AD",
"_  c #9FA2B2",
"`  c #A3A2AE",
"'  c #A8A4AF",
"]  c #A5A4B2",
"[  c #A9A6B4",
"{  c #A7A9B7",
"}  c #ABA9B6",
"|  c #A7A7B8",
" . c #A6A9BB",
".. c #ABABBB",
"X. c #B1ABB5",
"o. c #B1AEBB",
"O. c #AEB0BF",
"+. c #B3B1BE",
"@. c #BBB5BD",
"#. c #C2B8BE",
"$. c #A7ADC0",
"%. c #ADAEC2",
"&. c #B0AEC0",
"*. c #AFB1C4",
"=. c #AEB2C9",
"-. c #B4B3C3",
";. c #B9B6C4",
":. c #BBB9C5",
">. c #B4B5CA",
",. c #B9B7CB",
"<. c #B6B9CC",
"1. c #BCBBCC",
"2. c #B7BAD1",
"3. c #BCBDD2",
"4. c #C5BCC4",
"5. c #C2BECC",
"6. c #C1BFD3",
"7. c #BEC0D6",
"8. c #BEC2D9",
"9. c #C3C1CE",
"0. c #CAC3CC",
"q. c #C4C3D4",
"w. c #C9C6D5",
"e. c #C6C8D7",
"r. c #CCC8D5",
"t. c #C4C5DB",
"y. c #C9C6DA",
"u. c #C7CADF",
"i. c #CBCADC",
"p. c #D1CAD5",
"a. c #D2CDDD",
"s. c #D3D0DD",
"d. c #D8D4DC",
"f. c #C4C7E0",
"g. c #C6CAE3",
"h. c #CCCCE3",
"j. c #CBCEE9",
"k. c #D1CEE2",
"l. c #CED1E5",
"z. c #CED1EA",
"x. c #D4D2E4",
"c. c #D9D5E5",
"v. c #DEDAE7",
"b. c #D4D5EB",
"n. c #D9D6EA",
"m. c #D7D9ED",
"M. c #DCDAED",
"N. c #D2D7F1",
"B. c #DCDDF2",
"V. c #DEDDF2",
"C. c #E0D7E1",
"Z. c #E1DAE5",
"A. c #E2DDED",
"S. c #E2DEEE",
"D. c #E5DFEF",
"F. c #E1DEF1",
"G. c #E2DEF2",
"H. c #DEE2F6",
"J. c #E3E0EE",
"K. c #E9E3EF",
"L. c #E4E1F2",
"P. c #E3E2F6",
"I. c #E4E2F4",
"U. c #EAE4F1",
"Y. c #EBE5F4",
"T. c #E9E5F6",
"R. c #ECE9F6",
"E. c #E4E5F9",
"W. c #E9E6F9",
"Q. c #E7EAFD",
"!. c #EBE8FB",
"~. c #EDE9F9",
"^. c #EEEBFA",
"/. c #F1E9F6",
"(. c #F1ECFA",
/* pixels */
"M.b.5.y.x.z.c.h.h.y.x.c.k.x.k.i.i.i.k.y.A.T.A.a.5.5.t.c.k.g.h.h.a.p.n.c.i.w.w.g.b.u.7.g.g.l.j.g.g.b.",
"G.x.6.k.n.c.c.c.k.k.k.k.x.c.i.h.k.c.a.c.M.y.-.o.;.5.k.c.b.g.j.y.i.r.c.c.5.q.7.l.g.t.>.t.g.h.h.z.j.B.",
"G.i.y.k.n.n.n.n.G.n.x.x.A.L.A.k.y.y.6.6.3...o.] B Z ( 5.5.6.| } ..%.w.5.%.r.t.g.j.l.h.j.l.l.l.z.z.b.",
"I.t.h.a.k.n.M.A.(.W.G.A.A./.D.G.G.M.z.h.b.1.g t 5 7 m W C z r 4 1 l J ! _ l.x.x.j.l.n.v.M.c.x.b.B.^.",
"G.f.6.k.k.n.G.W./.(.L.L.J.R.~.T.G.G.k.-.6.e 1 k l Z ..y.' I W 2 4 k ! -.7.h.P.I.V.M.:.q.c.M.s.x.G.(.",
"~.G.k.k.n.c.D.D.A.A.R.R.T.R.T.I.G.n.h.5.[ r 6 5 u Z 6.h.&.s I e w 1 5 ] s.I.^.P.P.M.e.c.A.A.v.b.b.G.",
"G.c.c.c.6.a.k.k.9.v.(.(.^.V.b.x.N.j.P.k.-.| v 4 E | j.n.Z ; 2 2 * + * Q s.H.Q.L.G.M.M.M.L.Q.U.n.U.V.",
"6.6.k.6.Z ' ' 5.c././.(.I.b.) 9.G.V.W.w.q.w.$.R Q =.n.n.&.u & X . $ S x.V.P.Q.(.(.~.~.A.v.P.M.c.U.n.",
"g.t.6.,.B n ' 0.J.K.A.A.I.7.7 O.R.v.v.7.a.) U G V %.G.;.Z r # . o v :.s.H.P.d.Z.L.P.H.c.b.b.n.V.v.x.",
"z.z.t.,.K t Y 0.r.C.c.s.E.i.b @.e.} 7.v.e.` +.P x W N.Z * - +   o N 7.b.H.m.l.J.:.z.b.B.V.b.E.(.E.m.",
"b.l.6.1.*.t Y 5.F D @.0.:.-.! w.z A e.x.l.{ 7.D P 6.;.w 8 7 &   @ v <.V.U.M.m.v.e.V.V.Q.P.H.E.P.B.b.",
"x.g.E G a.^ ;.b.Y z f ' D K ! k J n ..) Q A Q t 8 Z W 9 ! ! w . o Y b.A.(.E.x.l.h.r.q.b.(.E.V.i.j.b.",
"t.t.E 7 | h.h.b.q.! L -.U d S u A ) U 7.u.Y s 4 < 1 e v  .3.T 1 + w ` 7.P.M.y.[ L Y { c.b.g.u.[ t.t.",
"t.<.y l ! b.h.t.Q U -.;.t.:.B 6 J Q R d.b.1.A p , V m ( | ..;.P 7 X $ d c.x.k.h...) 9.H.b.b.n.x.x.g.",
"t.%.2 m 8.j.t.t.*.*.^ K { u.] ! 7.A c u.b._ y g s ..k.w.' } 5.5.P -   1 O.} G ..i.q.x.V.G.n.h.a.b.g.",
"g.%.l 2.h.f.t.3.<.3.2.=.3.u.{ ..v.e.) 7.h.q.K B ..3.x.y.o.;.X.( Y J < - v d ; d q.<.t.z.b.g.u.j.k.x.",
"j.t.t.k.h.f.6.,.2.8.2.q.x.M.X.w.U.U.d.-.9.i.;.7.h.h.:.;...1...k y ,.v # O # . u } { 1.h.g.3.<.f.g.g.",
"g.j.j.z.f.6.=.>.t.8.8.k.n.A.w.v.K.R.R.Z.' ] -.7.<.9.-.1.` ! E d u L ] s o   X t D U 8.f.7.t.q.f.t.t.",
"f.g.z.z.t.,.,.5.b.n.i.A.G.b.i.r.s.s.J.d.;.D %.3.q.j.[ [ ] ! ! s L N ] u * . . o O , A _ =.1.u.h.6.3.",
"g.g.g.t.>.,.:.r.L.v.a.r.w.x.x.A.v.v.a.e.] ! 1.3.u.i.y.t.| Q ! u M &. .w m <         $ N _ ] q.t.j.j.",
"N.j.f.=.%.3.k.A.M.n.I.a.4.s.a.k.d.d.p.J.i.i.w...M ..:.o.....] 8 8 E / w e -           + - e E >.2.b.",
"g.6.2.3.t.h.c.n.T.I.U./.a.w.p.;.q.+.;.s.i.5.[ *.&.6.o.T L H >.G v m x < w 4 .     + 2 5 B K k -.=.=.",
"3.>.3.z.G.G.k.c.G.p.w.-.6.y.y.a.s.e.i.} ..} q.c.3.7.1.o.8 5 I o.o.5.s * 1 w - . o , ] k.c.X.! t.t.2.",
"8.6.h.z.G.A.M.x.x.} K o.6.w.T q.s.9.i.9.O.1.c.M.-.6.y.5.Z u K C S I 5 = @ * O   O # 8 ! c.L.e.s.x.h.",
"g.f.z.n.n.n.v.k.w.W Y ( 6.;.;.n.l...] e.O.@.e.s.w.t.7.-.E ] ] j , - - & .             9 ] k.k.c.L.k.",
"j.j.n.G.G.[ M ,.] G n P 6.w.r.r.7.:.;.l.7.O.7.7.i.g.t.*.Y ;.-.L *   . + o           $ C w.c.G.M.M.r.",
"h.6.6.t.f.Z 8 ^ R j D :.1.5.;.:.' O.e.l.{ } ` -.u.1.>.^ V @.r.o.d o   X           o s X.5.D.U.A.i.q.",
"6.L 7 2 4 : 1 8 8 5 S ` 5.X.+.' c J O.e.O.7.<.7.-.' Y L Y w.q.o.k @ X             O 7 5 r ' a.a.t.t.",
"y.u o   X . o & @ , } e.i.q.7.! Y R 7.8.<.1.1.-.} ;.T 8 v E 9...< X .               X X & t w.c.n.z.",
"Y +           O - : S ;.1.:.+.) A A e.7.q.q.i.e.Y ! z r l d C D * * +                 X o : [ A.M.G.",
"o.&             = , 4 ! J Q ) U ~ T } 7.8.3.r.<...^ u v Y L B a * X .                 + o , Z &.k.T.",
":.$             . o - f v 6 u w z ) T S R q.c.1.1./ r , < k f C 1 $ #             .     O 1 v C -./.",
"4.- o               X - 4 * s r k ....k ] ;.q.} ( i 5 5 5 8 i B w @ . + o         . + * 4 v D } 3.G.",
"G.^ d w 7 % o         . % > d J U _ S m 7.$...K e 5 < 5 3 7 s 7 * o   + * @     O X 1 ..x.w.9.i.B.N.",
"P.a.E r.e.s O           . 4 u v A E l 3 Q m m j = * + = 4 j ) D $ @ o o $ < o   * < a Y ..v.v.M.B.B.",
"e.[ R 3.9.f .             1 5 u 5 5 p 5 Y ^ G 8 y < , , 1 i K D 7 d * o         + ; < r n 4.1.n.E.I.",
"L.;.5 p F S %             . X y i q N q L K 2 o = < * * 1 2 - 1 4 D , o             X X - K [ 5.I.E.",
"P.e.t $ p w o                 + < y u 2 y - .   O 2 2 ; 2 5 @ % e n w o o       o . O & w :.L Y h.!.",
"E.l.D ) S 8 $                   o O @ . & = O   o o s S p t 1 - 6 - * o       = w 9 T W @./.A.A.Z.Z.",
"r.l._ m.H.m.R - o                     o ; 5 +   . . 3 s 1 1 * e < ; *         < 8 x ;.C ( Z.C.d.p.4.",
"@.M.m.V.H.E.P.-.;   O $ X             X @ - .   . + * * o   X $ X           * 2 u D 9.] ;.d.0.4.4.#.",
"x.c.x.M.E.l.-.e.k 6 M &.H 1     .                     .                 O 5 q / ! ] w.:.n.h.q.q.6.3.",
"c.c.s.v.~.T.s.:.5.i.i.M.G.&.+                                           g 2.*.f.I ;.R.P.j.g.g.j.f.k.",
"c.i.q.e.M.I.s.0.w.r.x.G.V.q.-         .               . # o           # [ 3.3.6.>.k.P.i.h.3.3.g.g.k.",
"m.b.t.t.b.M.M.b.k.c.b.G.n.b.[ M q 8 , : * +     X 2 @ . - $ o         1 t.n.c.k.x.L.A.c.k.k.V.b.g.g.",
"P.M.h.t.l.M.M.M.h.k.h.G.P.G.G.B.h.6.=.^ k N 4 : 8 ! i u 2 - # X       y t.c.G.A.x.M.M.k.y.i.G.W.V.n.",
"x.M.x.t.t.b.G.I.k.t.h.B.n.n.b.b.M.A.M.h.>.3.>.-.y.j.3.q.%.W W g , 2 < ^ k.c.c.s.a.i.y.6.3.3.g.n.n.g.",
"g.h.j.j.h.h.I.G.v.k.c.c.h.z.j.j.M.A.c.h.6.>.8.g.g.j.z.g.h.n.M.b.6.3.,.k.v.x.s.a.p.q.g.n.z.t.q.j.g.6.",
"t.h.j.h.j.j.B.!.Z.k.x.k.a.b.M.k.x.c.s.p.6.h.h.z.n.h.j.j.f.h.h.k.i.,.w.y.;.w.y.a.c.b.m.G.A.f.f.f.f.>.",
"j.j.h.y.j.j.j.M.a.k.k.i.i.x.c.c.a.s.a.5...6.n.n.k.t.f.h.f.j.j.t.t.6.k.i.1.i.y.k.n.n.f.n.c.k.6.f.j.k."
};
