/* XPM */
static char *_b28a9a87c56400286c12e393bdad617naUfaZIzAEHsuWh4[] = {
/* columns rows colors chars-per-pixel */
"50 50 162 2 ",
"   c #46727F",
".  c #477380",
"X  c #4B7684",
"o  c #4E7886",
"O  c #517987",
"+  c #547D8A",
"@  c #5A7F8D",
"#  c #57808D",
"$  c #59818E",
"%  c #5C8391",
"&  c #618694",
"*  c #638996",
"=  c #658C98",
"-  c #6C8B9B",
";  c #728F9E",
":  c #6C929D",
">  c #7B909D",
",  c #7495A3",
"<  c #7A95A4",
"1  c #769AA5",
"2  c #789BA7",
"3  c #7B9CAA",
"4  c #7AA1A7",
"5  c #7EA2AB",
"6  c #829DAC",
"7  c #849EB3",
"8  c #83A2AE",
"9  c #86A3B1",
"0  c #8DA4B3",
"q  c #86ABB1",
"w  c #8CABB6",
"e  c #94ADBB",
"r  c #9BABBC",
"t  c #8DB3B5",
"y  c #92B5BA",
"u  c #9BB0BF",
"i  c #97BABE",
"p  c #9ABDBE",
"a  c #A4A9B6",
"s  c #A0AEBF",
"d  c #BFB7BE",
"f  c #C2B8BE",
"g  c #99ABC0",
"h  c #A2AFC3",
"j  c #AEAEC1",
"k  c #A2B3C4",
"l  c #AFB2C6",
"z  c #A5B8C7",
"x  c #A7B7C8",
"c  c #ACB5CA",
"v  c #AFBCCC",
"b  c #B4B4C7",
"n  c #B3B4C9",
"m  c #B9B7CB",
"M  c #B4B9CD",
"N  c #BCBACC",
"B  c #B6BBD1",
"V  c #BCBDD3",
"C  c #C5BCC4",
"Z  c #C1BDCD",
"A  c #C1BED3",
"S  c #9DC2C2",
"D  c #A2C5C5",
"F  c #A7C8C8",
"G  c #ACCBCB",
"H  c #B6C3D4",
"J  c #BDC1D6",
"K  c #BEC2DA",
"L  c #BFC9DD",
"P  c #B7D2D2",
"I  c #BCD5D5",
"U  c #BFC8E2",
"Y  c #C5C1CF",
"T  c #CCC3CD",
"R  c #C4C2D5",
"E  c #CAC5D5",
"W  c #CCC9D5",
"Q  c #C4C4DB",
"!  c #CAC6DA",
"~  c #C6CADD",
"^  c #CBCADD",
"/  c #D2CAD4",
"(  c #D2CDDD",
")  c #C4DAD9",
"_  c #C8DDDC",
"`  c #D5D0DF",
"'  c #D8D3DE",
"]  c #C4C7E1",
"[  c #C6CAE3",
"{  c #CCCCE3",
"}  c #C6CDE9",
"|  c #CBCEE8",
" . c #D1CEE3",
".. c #D1CFE8",
"X. c #CDD1E5",
"o. c #CDD1EA",
"O. c #D4D1E5",
"+. c #D9D4E6",
"@. c #DDD9E7",
"#. c #D4D4EB",
"$. c #DAD6EA",
"%. c #D6D9EE",
"&. c #DDD9EA",
"*. c #DFDCE9",
"=. c #DAD8ED",
"-. c #DBD9EE",
";. c #DDD9ED",
":. c #DCDAED",
">. c #DDDAEE",
",. c #DDDCEE",
"<. c #D2D7F0",
"1. c #D6DBF4",
"2. c #DBDBF1",
"3. c #DDDBF0",
"4. c #DEDDF1",
"5. c #DCDCF2",
"6. c #DCDDF3",
"7. c #E0D6E1",
"8. c #E2DAE6",
"9. c #E0DBED",
"0. c #E2DDED",
"q. c #E1DDEE",
"w. c #E5DFEF",
"e. c #E1DBF1",
"r. c #E2DEF2",
"t. c #E6DFF1",
"y. c #E0DFF4",
"u. c #DEE0F5",
"i. c #DCE1F8",
"p. c #E5E1EE",
"a. c #E5E0EF",
"s. c #E2E0F2",
"d. c #E5E2F2",
"f. c #E3E1F5",
"g. c #E3E2F6",
"h. c #E4E2F5",
"j. c #E4E2F7",
"k. c #E7E4F6",
"l. c #EBE4F1",
"z. c #E9E4F3",
"x. c #E9E4F5",
"c. c #EBE5F5",
"v. c #EAE5F7",
"b. c #EDE9F7",
"n. c #EEE8F7",
"m. c #E4E5FA",
"M. c #E9E6F9",
"N. c #EAE6F9",
"B. c #E6E8FC",
"V. c #EBE8FB",
"C. c #EFE9F9",
"Z. c #EFE9FA",
"A. c #ECEAFC",
"S. c #EEEAFC",
"D. c #F0E8F5",
"F. c #F1EAF7",
"G. c #F1EBF9",
"H. c #F3ECFB",
"J. c #F1EDFC",
"K. c #F2ECFC",
"L. c #F3EFFE",
"P. c #F4F1FE",
/* pixels */
"=.#.E {  ...+.{ { ! +.+. . . .^ ^ ( ^ ^ r.h.9.( Z Z ! .. .[ | { ( ( +.+.( R E | o.] R [ { | { [ [ %.",
"h.O. .O.+.+.+.+. .{  .( +.+.{ ! ^ +.( +.=.>.&.E Y ! ..+.O.{ { ] ^ W +.w.@.A J X.[ R n ] [ o.| o.{ 6.",
"y. .E  .+.9.9.+.t.$. .O.e.t.$. .! ! R Q V O.O.^ E !  .+.+.+. . .R R (  .R ^ { [ } o.X.X.X.{ o.o.o.%.",
"d.R { ^  .$.$.e.G.M.r.w.z.D.z.r.>.=.{ #.$.6.$.O.A !  .+.9.9.9.+.] A A Q ] O.c.=.X.O.=.,.8.@.O.%.6.A.",
"r.{ A  ...=.e.V.G.K.t.r.w.c.G.M.h.y.%.$.2.3.>.&.E ]  .! { $.$.$.{ R Q ~ ~ { g.g.6.6.h.m.h.>.( X.,.J.",
"S.=...$.e.t.S.K.G.M.c.G.c.M.c.c.r.$.O.#.>.>.>.>.] Q  .{ ]  ... .E V R V { c.B.g.k.m.g.h.d.q.&.+.+.>.",
"k.+.e.$.$.t.V.M.c.c.H.H.A.3.$.g.%.#.r.s.6.$.X.! ]  ...+...| [ A E ! O.! &.M.m.g.t.m.A.c.d.V.h.+.d.r.",
"A A ] +.O.+.=.6.h.D.D.G.h.1.6.B.m.1.S.P.m.{ V ~ ..#. .....A [ | R Y ! +.6.m.c.K.K.A.G.>.&.c.>.+.c.+.",
"] ] A ..#.O.&.z.c.w.w.w.r.g.g.B.P.m.B.S.k.{ { { ..+.+.r.6.] V | { N N { 6.c.P.P.V.B.u.@.O.%.=.=.=.O.",
"..| o.#.&.O.' w.w.8.8.@.m.B.m.A.A.m.V.P.B.=.O.O.O.#.%.%...{ V ] { K J O.u.B.S.V.S.1.O.6.u.%.m.S.m.%.",
"#.o.o.#.+.( / @.7./ T E +.B.B.B.B.m.B.B.g.%.X.+. .>.>.>.e...V B J Q { u.h.g.g.P.m.u.6.B.P.i.h.M.2.%.",
"O.o.O.%.$.{ X.#.( Z Z Z ^ $.$.h.m.B.B.i.1.1.X.R ! h.g.6.e.2.+.{ O.y.2.h.P.S.6.h.j.B.u.m.P.m.6.{ X.#.",
"Q | #.#.3.#.{ #.{ Q <.6.=.r.( ^ i.B.i.i.u.m.i.X.E ! ! | | ..>.+.+.+.m.m.B.M.=.=.B.m.g.y.%.] O.O.[ Q ",
"Q | } | =.O.{ | Q R 6.6.$.y.O.{ i.i.i.i.m.m.i.X.~ N R #.O...+. .( ( =.B.L. . . .=.1.6.c.$.| 3.r.#.Q ",
"Q { { [ | { R [ | o.=.{ | .. .^ u.$.=.i.i.6.%.[ | { #.O.@.O.O.( / ^ { B.6.!  .O. .J  .6.e.%.O.r.+.{ ",
"] [ #.#.[ [ ~ V M V V [ { | ]  .r.=.#.#.O.%.O.^ o.#.+.+.+.O.W E ~ O.h.M. . .+.+.^ K ~ #.%.[ { { O.{ ",
"| | o. .{ ] V m B V M J O.d.>.>.M.m.h.q.+.+.~ ~ X.{ ^ O.~ ! { E R 1.m.#.R ^ O.( R N ^ X.| B N [ [ { ",
"[ } | #.! V n n Q Q L O.+.h.>.c.b.@.~ H z e 8 3 9 3 6 9 9 w u k v X.X.K R {  .R V V L | [ ! Q [ ] ~ ",
"] [ | | Q m m C #.+.! &.y.| H k q : * # + O O X o o o o o o + # * , w z J ! { R U } } o.o.o.#.o.] V ",
"[ [ [ ] n m m ( d.&.` a.X.9 * + o o X X X O X O o o o o o o o o o o + % 8 v { { [ } o.] ~ ! { ~ | } ",
"%.} Q n j m ( @.>.=.g.O.3 O o o o X X O O + + + O # # # o O o o o o o o + 5 ~ ^ [ | O.^ O.( ~ N N o.",
"[ Q V V ~ { $.>.c.M.P.L = X o o $ - 4 q y p D D D S p i t q 4 : % + o o o * H ,.| | { #.@.( J n b j ",
"V M B { s.r.O.+.q.m.A.#.q @ $ 8 p F P ) _ _ _ ) ) ) I I G F S S S i 4 $ o 1 ~ B.%.[ { +.9.@.! ~ ~ B ",
"U A { | r.6.+.+.+.&.>.O.M ; 2 p D G G F F D D D D S D D D S p S D D D q : e 6.q.g.r.r.,.d.r.E ( $.{ ",
"] ] ..#.$.=.e.+. .8.r.O.R 6 O $ = : 1 5 9 q w y i i i i i i q y w 9 1 = % J K.K.Z.Z.e.k.6.=. .@.w.{ ",
" .] $.=.e.y.>.{ !  .8.! ] m @ X X . X o o o + + # $ % % % $ $ + O O o X < h.P.A.M.k.t.Z.V.k.d.&.>.! ",
"{ { +.>.=.#...Q Q Q E ( E A >   X . . . X o o o o o o X o X o o o o O O H S.A.r.r.=.c.K.H.G.G.q.^ R ",
"V ] #.....>.9.{ V A A { ( E a X . . X . X o o o o o o o o o o o o o o = X.6.s.c.#.=.r.V.t.t.d.O.R R ",
"=.=.$.+.$.e.6.=. . . .{ $.@.{ ; . . . . X o X o o o o o o o o o o o o 0 y.d.k.L.h.d.t.D.c.z.r.e.%.#.",
"y.3.=.$.$.| { #.q.>.+.Q {  . .h X . . . . o X X o o o o o o o o O X @ K y.V.V.G.S.q.w.a.G.G.k.y.@.h.",
"V.V.z.0.#.#.....8.+. .! { Q ~ ! %     . X X X X X o o o o o o o O X < e.K.K.K.A.k.G.b.c.M.k.r.@.+.M.",
"K.K.A.c. .A ! ~  .O.( ^ +.=.%.6.6   .   . .   X X o o o o o o o X X r 9.r.j.r.r.t.d.b.G.G.t.$. .O.J.",
"t.3.=.=.X.~ R Q { [ X.^ +.6.X.#.s       . . X X X X O O o o X X o $ V O.O.%.1.#.2.y.k.s.q.c.>.#.$.3.",
"r.3.#.M.b.u.o.#.X.| #.%.O.X.~ { c o     . X X X X X O X o o o o . - ^ 1.1.g.m.1.g.S.S.6.r.A.A.u.=.<.",
"S.B.6.B.A.B.=.%.=.=.#.@.{ Q N E n $       X X X X o X X o . o o   0 ,.g.i.m.P.A.6.r.r.j.K.G.D.6.6.6.",
"S.L.B.B.J.m.u.m.A.A.q.#.[ { ~ V B -       .   X . o X X X X X o O v B.B.m.B.A.B.6.r.M.K.K.G.t.m.m.h.",
"S.V.B.V.P.m.u.m.V.S.g.2.X.o.o.~ } 7     . . . X X X X X X X o . @ { d.m.B.B.S.m.>.+.e.r.g.y.j.B.B.m.",
"B.B.m.B.m.i.u.i.u.6.2.=.~ ! R ] o.g .   . . . . X X X o X X o . ; ,.a.,.,.u.m.i.9.O.$.&.6.g.c.c.B.B.",
"m.m.S.B.1.i.i.i.1.1.=.O.{ <.1.1.m.M .   . . . X X X . X X X X o 6 &.&.^ E W u.m.q.( @.8.l.l.t.>.q.8.",
"/ u.i.i.i.m.i.i.=.$.c.+. .6.u.m.K.O.&     . . .   X X . X X X O k #.q.+.E J X.1.3. . .( 8.7.@.&./ C ",
"d ,.6.u.i.i.B.B.,.,.6. .#.M.g.g.V.B.] , o .   . . . X . . O @ g ..$.=.6. .] |  .#.1.u.+.*.' T C C f ",
"O.+.` *.B.B.S.g.a.s.+.{ #.>.2.O.O.O.1.6.H 6 = @ @ @ @ & < h A  .3.e.y.e...] { }  .r.S.S.>.{ K R N E ",
"+.O.^ 8.b.J.s.' q.+.O.+.=.3.3.{ [ | | $.1.#.o.L K B m ]  . .+. .3.$.#.#...A Q [ ~ +.A.3.{ [ ] } ]  .",
"+.^ L E ,.s.` W ^ ^ O.*.=.6.=.{ K [ { | ] { 1.#.[ K A +.O.{ ] +.e.e.e.r.=.] K V A $.h.{ ^ V J [ ] { ",
"%.#.~ R $.>.$.O.{ +.+.3.=.$.>...V K ] A { =.e.e.{ ~ {  .+.+.+.^  .3.3.3.=.$.@.+.O.s.a.+.+. .>.%.{ { ",
"s.,.{ [ O.>.q.%.{  ...e.y.r.r.=.{ Q Q { O. .#.9. .! ] +.$.@.9. .~ ] [ | { @.r.>.O.=.&. .! ^ g.h.1.$.",
"%.+.O.~ Q #.r.g.O.E { 6.$.<.<.$.&.9.>...{ ] { | .. .] ] $.>.>.$.| A Q |  .+.+.' ( ! E V J J ! 2.=.] ",
"] { { { [ [ h.h.+.O.+.+. ...| { @.9.+.{ A n A [ [ } ..] { $.=.$. .Q R  .+.( +.( W R { +.o.Q V | { V ",
"Q } { [ | | 3.G.@.( +.O.^ O.+.O.O.+.( ( E ! { | #.{ | | ] { .. .! m A O.O.( E ( +.#.$.y.9.{ ] ] Q b ",
"| | { ! | | | 3.O.(  .! ! +.&.+.( O./ E R #.<.%. .! ] { ] | { Q R A  . .!  .!  .=.$.] +.+. .V [ | { "
};
