/* XPM */
static char *ff1b862ecbdf492aa354695697c934c6Q2opPysd2OtYW09E[] = {
/* columns rows colors chars-per-pixel */
"50 50 205 2 ",
"   c #010101",
".  c #111107",
"X  c #111118",
"o  c #35350A",
"O  c #1F1E20",
"+  c #29292B",
"@  c #474808",
"#  c #5D5D09",
"$  c #7C7C0A",
"%  c #6F6F13",
"&  c #4D4B54",
"*  c #6F7068",
"=  c #6C6972",
"-  c #830100",
";  c #8C120D",
":  c #941D13",
">  c #922322",
",  c #A64F52",
"<  c #98980D",
"1  c #B4B412",
"2  c #D4D413",
"3  c #E8E813",
"4  c #FEFE13",
"5  c #FEFE1C",
"6  c #D6D639",
"7  c #FCFC22",
"8  c #949475",
"9  c #D5865B",
"0  c #DE976B",
"q  c #E49B68",
"w  c #C0A37F",
"e  c #EBA66F",
"r  c #FCD45A",
"t  c #F3F343",
"y  c #F4F44A",
"u  c #EBEB5A",
"i  c #F4F45D",
"p  c #DBC260",
"a  c #C6C472",
"s  c #F1D46F",
"d  c #FFC973",
"f  c #EAE96B",
"g  c #E5E478",
"h  c #FCF977",
"j  c #7A7A88",
"k  c #5151B8",
"l  c #6A5AB6",
"z  c #3C3DC3",
"x  c #2222DC",
"c  c #0000FE",
"v  c #0A08FA",
"b  c #0F10FA",
"n  c #1615F9",
"m  c #1F20E4",
"M  c #3631EC",
"N  c #2323F9",
"B  c #7358C4",
"V  c #5250ED",
"C  c #4847F5",
"Z  c #5754F4",
"A  c #695FE6",
"S  c #6561E9",
"D  c #787AE6",
"F  c #7675F4",
"G  c #838384",
"H  c #838489",
"J  c #8D8D8D",
"K  c #858592",
"L  c #94929A",
"P  c #9D9D9D",
"I  c #BE8284",
"U  c #BA8792",
"Y  c #8F91A1",
"T  c #9393A3",
"R  c #9F9EAC",
"E  c #A88FAE",
"W  c #9FA2B3",
"Q  c #A3A3A3",
"!  c #A2A1AA",
"~  c #ABABAC",
"^  c #A9A9B6",
"/  c #B1AFB6",
"(  c #BAB8BA",
")  c #D8A693",
"_  c #E9B38A",
"`  c #FBBE81",
"'  c #F5BE89",
"]  c #E7B494",
"[  c #C4A3B1",
"{  c #C5B7B9",
"}  c #D9DA9D",
"|  c #FDC182",
" . c #F3C28B",
".. c #FAC38B",
"X. c #EDC596",
"o. c #F8C696",
"O. c #F2C59C",
"+. c #FED09F",
"@. c #E4E585",
"#. c #EEED96",
"$. c #DDDEAA",
"%. c #D7C3BC",
"&. c #D6D6B6",
"*. c #E9C6AD",
"=. c #F3C8A4",
"-. c #EBCAB3",
";. c #E9CAB8",
":. c #F1CDB2",
">. c #DEE1AA",
",. c #F0E6BD",
"<. c #AE96CA",
"1. c #A89DD7",
"2. c #AEAEC1",
"3. c #AFB2C6",
"4. c #B4B3C4",
"5. c #BCB5C4",
"6. c #B3B4C9",
"7. c #B9B7CB",
"8. c #B5B8CD",
"9. c #BDBACC",
"0. c #B7BAD0",
"q. c #BCBDD3",
"w. c #9798EB",
"e. c #B7B4EA",
"r. c #AAAAF4",
"t. c #C8BCC6",
"y. c #C1BECD",
"u. c #C1BED3",
"i. c #C2BEED",
"p. c #BEC0D6",
"a. c #BEC1DA",
"s. c #BFC8E2",
"d. c #C5C5C4",
"f. c #C4C1CF",
"g. c #CBC3CC",
"h. c #DCC9C5",
"j. c #D3C4CA",
"k. c #D3D4C7",
"l. c #C4C2D5",
"z. c #CBC6D5",
"x. c #CCC9D5",
"c. c #C4C4DB",
"v. c #CAC6DA",
"b. c #C6C9DE",
"n. c #CBCADD",
"m. c #D3CAD4",
"M. c #D9CDD5",
"N. c #D2CDDD",
"B. c #CCD0DF",
"V. c #D5D3D7",
"C. c #D3D1DC",
"Z. c #E5CDC7",
"A. c #EDD7CA",
"S. c #E8D7D9",
"D. c #E5E3D1",
"F. c #FAE9D9",
"G. c #F2F0D0",
"H. c #C4C7E1",
"J. c #C6CAE3",
"K. c #CCCCE3",
"L. c #C6CDE9",
"P. c #CBCEE9",
"I. c #D1CEE2",
"U. c #CED0E6",
"Y. c #CDD1EA",
"T. c #D4D1E5",
"R. c #D9D4E6",
"E. c #DCD8E6",
"W. c #D4D4EA",
"Q. c #DAD6EA",
"!. c #D6D9EE",
"~. c #DCDAED",
"^. c #D3D7F0",
"/. c #D6DAF3",
"(. c #DCDCF2",
"). c #D6D6FC",
"_. c #E0D6E1",
"`. c #E2DAE6",
"'. c #E2DDED",
"]. c #E1DDEE",
"[. c #E1DEF1",
"{. c #E2DEF2",
"}. c #DEE0EC",
"|. c #DEE0F5",
" X c #DCE1F8",
".X c #E4E2EE",
"XX c #EAEAEC",
"oX c #FDF3E9",
"OX c #E4E2F5",
"+X c #EAE5F5",
"@X c #EAE5F6",
"#X c #EDEAF6",
"$X c #E4E5FA",
"%X c #E9E6F9",
"&X c #E6E9FC",
"*X c #EEE9FA",
"=X c #ECEAFC",
"-X c #F0E9F6",
";X c #F1EDFC",
":X c #F2F1F7",
">X c #FDFBF5",
",X c #F5F4FB",
"<X c #F9F8F9",
"1X c #FDFDFD",
"2X c #FDFDFE",
/* pixels */
"~.W.v.n.I.W.T.K.K.v.R.R.I.T.I.n.v.N.N.v.(.+X`.n.y.y.v.Q.I.P.P.K.N.N.T.R.N.l.l.U.U.b.c.J.J.K.U.J.J.^.",
"OXT.N.T.R.R.R.R.I.I.I.N.T.R.I.v.I.T.N.R.~.~.E.z.l.v.I.R.I.J.J.v.N.x.R..XR.u.p.U.K.a.6.a.K.K.K.Y.P.(.",
"(.n.v.I.Q.Q.`.Q.[.W.I.T.'.'.Q.I.K.v.u.u.p.I.R.I.v.m.Q..X`.T.I.I.c.y.N.I.c.x.K.P.Y.U.U.U.U.U.W.Y.Y.~.",
"OXv.n.K.I.Q.Q.[.;X;X[.'.@X-X@X[.~.~.Y.W.W.+X<X<XXX#X,X1X;X'.'.R.J.q.l.c.c.W.@X~.U.U.Q.'.~.R.T.W./.#X",
"{.u.u.K.T.~.[.*X-X;X[.[.'.-X-X%X[.[.W.~.'.;X1X1X1X1X1X1X,X:X-XQ.N.u.c.c.v.P.{.{.(.(.OX$XOX!.C.T.[.-X",
";X[.W.W.[.[.*X;X;X%X-X-X+X+X%X%X{.Q.P.W.(.,X1X1X1X1X1X1X1X,XR.I.z.u.c.u.K.%X*X$X$X$XOXOXOX'.~.T.E.(.",
"{.Q.'.`.Q.{.[.*X%X+X;X;X#X(.!.[.!.W.[.@X[ I `.>X1X>X>XoXF..XT.c.l.v.T.v.~.%X$X{.[.%X=X+XOX-X+XR.OX{.",
"u.u.i.R.R.R.(.{.[.-X-X-X$X(./.&X$X(.=X=X, - > , ] +.o.X.X.I.Y.K.v.l.v.T.(.$X%X;X;X;X*X~.E.$X!.R.+XQ.",
"J.H.u.W.R.U.E.+X+X.X'.'.OX XOX=X=X&X$X=X, - : : e | |  ...k.H.K.J.y.y.K.(.%X;X,X=X$XOXT.R.^.!.~.!.T.",
"Y.P.P.W.Q.T.R.'.'.`.`.`.$X&X$X=X;X$X=X,XU ; 0 9 e | | ..:.m.a.J.J.l.q.T.|.=X&X,X&X(.!.|. XW.+X*X@X!.",
"W.Y.Y.Q.R.N.m.E.V.m.j.z.R.&X&X%X&X&X&X&Xt.> q | | | | ..S.T.q.a.a.c.J.[.+X$XOX=X+X(.(.$X=X&X$X@X/.W.",
"I.W.Y.W./.K.T.W.T.y.y.f.x.Q.Q.OX&X&X=X X/.U 0 | | | e ..S./.W.T.T.|.(.$X=X=X|.$XOX&X$X&X=X$X(.I.T.W.",
"c.P.Y.Q.~.Q.K.W.P.c.W./.(.{.N.K. X&X X/.=X&X=.| | | | ..h.T.~.'.Q.E.$X$X*X%X~.!.&X&XOX[.W.J.W.T.J.c.",
"c.P.P.P.W.W.n.P.c.c.[.(.W.{.I.K.$X X(.$Xr.F ;.| O.{ h.Z.T.I.Q.R.R.n.~.$X=XI.I.I././.(.+X/.U.!.{.T.c.",
"c.I.P.J.P.I.c.J.K.W.W.P.P.Y.I.n.|.R.r.F N c Z <.1.P.T.W.R.R.N.R.N.m.T.$X(.v.I.T.I.p.U.(.(.Q.T.'.Q.n.",
"H.K.Y.Y.J.H.n.q.8.q.q.H.P.I.J.I.L.C b c c c c c b w.E.R.R.I.m.v.n.T.|.$XT.I.R.R.K.a.b.T.W.K.J.K.T.Y.",
"P.P.T.P.P.J.u.7.0.a.0.q.W.%X(.A.E c c c c c c c c S I.R.n.n.n.v.v./.OXW.c.v.I.N.l.9.K.T.J.q.8.J.H.P.",
"J.L.P.T.v.q.6.4.c.a.c.I.Q.`.:...) S C c c c c c c C I.W.n.v.n.I.c.Q.T.c.l.K.N.c.q.q.a.L.L.b.c.K.J.b.",
"H.J.P.K.c.7.7.y.R.R.n.'.[.M...| O.`.Z c c c c c c M U.Y.v.c.K.P.H.P.W.v.c.J.K.u.J.L.L.Y.Y.Y.W.W.c.p.",
"J.J.P.c.6.7.7.m.OX~.N.[.;X[.=.` o.T.N c c c c c c n L.P.J.c.I.Q.W.I.K.K.n.v.K.K.L.L.Y.c.b.n.K.n.J.L.",
"^.P.q.3.2.7.I.'.~.Q.OX*X+XR.;.` | <.v c c c c C V M e.Q.c.u.I.[.{.W.H.K.W.@X~.n.J.Y.I.v.T.v.c.8.9.Y.",
"L.c.q.q.v.P.R.~.OX=X;X;XQ.c.M...e ) l v c c N e.h._ Z.I.q.6.c.~.W.Y.i.c.Y.{.{.~.L.K.P.R.~.N.l.6.3.3.",
"a.8.q.P.{.{.I.R.'.%X=X[.I.N.Q.;...d ) b c c D E.Z.` ;.I.6.7.u.~.(.~.v.q.[.%X$X$X!.J.K.Q.'.E.x.c.b.q.",
"a.u.P.Y.[.'.Q.R.T.Q.(.W.v.I.Q.-.| ' p z c v r.[.Z.` h.I.u.5.I.[.{.(.W.W.%X&X{.[.OX(.[.[.OX.Xv.C.W.U.",
"c.H.Y.W.Q.Q.{.T.I.`.[.I.v.I.R.;. .E B 8 x c w.!.;.o.u.7.q.K.P.P.Y.P.Q.(.$X$X;X;X;X;X{.{.[.Q.T.E..Xn.",
"K.K.W.[.[.{.~.I.v.T._.n.n.K.n.T.g.S b k 8 m D n.O.*.P.u.R.{.I.I.W.I.I.(.%X*X,X=X%X-X{.-X&X%X[.E.`.v.",
"P.v.Q.Q.Q.W.P.v.q.c.z.N.u.z.u.9.R.,X).H.#.a 5.h.' %.P.P.T.;X'.I.R.R.T.(.$X=X%X{.{.!.@X;X;X;X-X'.n.l.",
"q.K.W.Y.W.Q.'.K.q.c.l.n.I.t.y.9.~.1X1X1X1Xh r | ` { v.P.W.'.Q.T.Q.R.N.I.~.{.OX@XW.Q.{.-X[.[.OXT.c.c.",
"Q.[.Q.Q.Q.{.{.W.I.I.I.K.~.E.J.c.OX1X1X1X1X,.r |  .M.T.T.Q.[.Q.T.I.n.K.I.{.{.@X;X{.[.'.-X+X+XOX[.W.T.",
"{.).Q.`.W.Y.Y.W.'.'.W.c.K.I.I.J.}.1X1X1X1XF...| O.I.R.K.c.v.I.T.K.K.I.~.{.%X;X;X;X[.'.@X;X*XOX[.E.OX",
"*X{.{.'.Q.W.P.I.`.R.T.v.K.c.J.T.OX1X1X1X1X1XA.o.s b.Q.T.c.n.R.m.v.W.Q.{.;X;X;X-X@X-X-X@X*X*XOXQ.Q.*X",
";X;X;X{.I.u.v.H.I.I.N.v.~.W.R.'.OX1X1X1X1X1X+XV.g @.I.K.c.c.N.v.N.I.W.[.{.{.{.{.[.[.-X;X+X'.Q.K.R.#X",
"@X'.^.~.U.c.c.c.K.J.Y.U.T.E.U.R.W.<X1X1X1X<X(.~.V.u } c.c.c.T.[.'.'.Q.T.U.W./.W./.$X+XOX~.+X~.W.Q.~.",
"{.{.^.@X*X(.Y.T.Y.K.W.~.W.K.b.K.K.<X1X1X1X:XT.K.T.k.u &.J.W.OX$XOX[.R.^./.OX$X(.OX;X=X(.OX*X*X(./.^.",
"=X=X(.=X=X&XW.W.(.~.W.E.U.a.8.l.v.<X1X1X1XXXa.L.P.L.$.u d.P.(.$X{.[.~.OXOX$X*X&X(.[.[.$X;X;X-X[.(.(.",
"=X;X$X$X;X&XOX$X&X#X}.W.J.U.v.q.x.1X1X1X1XOXJ.K.c.J.L.@.f n.W.+XOXOX$X&X&X&X;X%X/.'.%X;X;X=X[.OX$XOX",
"=X=X$X=X=X&X&X@X=X=XOX(.U.Y.K.s.Y.1X1X1X1X}.Y.b.6.q.L.K.f @.T.~.R.{.OX&X&X&X&X$X'.R.[.[.$X{.$X*X=X$X",
"&X=X&X&X&X(./. X|.$X/.W.b.n.c.b.Y.<X1X1X<X^.L.Y.I.P.T.^.D.i >.|.`.OXOX}.~.(.&X$X'.T.R.~.(.{.%X$X&X&X",
"$X&X=X&X/./. X X/.!.Q.K.I.^.^.(.$X1X1X1X,XY.L.Y.W.T.W.[.G.#.y D.~.~.~.n.z.x.!.&X[.N.R.`.+X%X'.'.E.Q.",
"x.(. X X X&X&X X~.Q.+XQ.I.(. X$X=X1X1X1X<XW.n.|.$XOX~.k.6 7 7 y &.C.OXT.b.p.W././.I.I.N.`._.S.R.m.g.",
"( ~.OX(.(.$X&X&X~.}.'.I.W.$XOX[.&X<X1X1X1X}.~.Q.N.+X[.W.* $ 3 5 5 y @.&.C.J.P.T.W.(.(.Q.`.C.g.t.t.{ ",
"T.R.C.~.&X&X=XOX.XOXR.J.W.(./.T.}.<X1X1XXX~ ~ Q H (.[.Q.u.& o < 3 4 4 7 t g k.K.P.[.=X=X(.J.c.l.y.u.",
"R.R.n.E.=X=X.XT.`.R.T.Q.~.[.[.I.}.<X<X:XV.P J = ! Y.v.I.I.K.K O @ 1 4 4 4 4 u n.v.W.;X{.K.n.J.L.c.I.",
"T.K.c.x.!.OXC.x.n.n.T.(.~.(./.v.( d.( / P G L 8.H.a.u.T.T.I.K.2.& . # 2 4 3 % K u.!.[.I.K.q.q.J.K.N.",
"~.W.c.c.T.!.Q.T.I.Q.W.~.Q.Q.W.R ! ~ ~ ~ Q P ! / l.c.v.W.W.R.T.I.c.j X o 1 @   + f.OX.XT.T.I.~.W.P.J.",
"OX(.K.b.W.Q..X~.K.N.W.[.[.[.[.R j , J Y J J H G J q.v.T.`.W.`.T.v.b.^ + .     & f.~.~.N.v.n.OX%X(.Q.",
"W.Q.I.v.c.W.{.{.I.v.I.(.W.W.Q.^.l.! T L T T T T ! H.J.J.Q.'.'.R.P.H.H.c.= X = g.C.v.c.l.a.a.b.Q.W.J.",
"v.K.P.P.K.K.@X{.Q.I.R.R.I.Y.P.P.!.'.`.K.c.6.q.P.P.P.K.K.I.W.Q.Q.I.u.c.I.R.5.N.N.v.l.K.R.U.c.a.K.P.q.",
"c.L.P.K.P.P.[.+XR.N.R.T.n.T.Q.T.R.T.I.m.c.v.J.P.W.P.P.P.J.K.Y.I.u.7.u.I.R.n.z.N.R.W.Q.[.~.v.H.H.c.6.",
"Y.P.K.v.P.L.P.~.T.N.T.v.n.R.R.R.N.C.M.z.c.W.!.Q.I.n.v.P.c.P.P.u.c.l.I.N.v.I.v.W.Q.Q.J.Q.~.I.c.a.P.K."
};
